<?xml version="1.0" encoding="UTF-8" standalone="no"?>
<svg
   width="271"
   height="49"
   viewBox="0 0 271 49"
   fill="none"
   version="1.1"
   id="svg65"
   xmlns="http://www.w3.org/2000/svg"
   xmlns:svg="http://www.w3.org/2000/svg"
   xmlns:rdf="http://www.w3.org/1999/02/22-rdf-syntax-ns#"
   xmlns:cc="http://creativecommons.org/ns#"
   xmlns:dc="http://purl.org/dc/elements/1.1/">
  <g
     aria-label="ergo.docs"
     id="text2219"
     style="font-size:40.8126px;line-height:1.25;fill:#272727;stroke-width:1.02032">
    <path
       d="m 59.496052,26.718728 q 0.224469,1.775348 0.918283,2.877288 0.714221,1.081534 1.816161,1.591692 1.10194,0.489751 2.469162,0.489751 1.48966,0 2.877289,-0.489751 1.387628,-0.489752 2.673225,-1.306004 l 2.5916,3.509884 q -1.530473,1.306003 -3.713947,2.142661 -2.163067,0.836659 -4.938324,0.836659 -3.713947,0 -6.223922,-1.469254 -2.509974,-1.48966 -3.775165,-4.08126 -1.265191,-2.5916 -1.265191,-5.958639 0,-3.203789 1.224378,-5.815796 1.224378,-2.632412 3.571103,-4.183291 2.367131,-1.571285 5.774983,-1.571285 3.101757,0 5.366856,1.326409 2.285506,1.32641 3.53029,3.815978 1.265191,2.489569 1.265191,5.979046 0,0.55097 -0.04081,1.183566 -0.02041,0.632595 -0.08163,1.122346 z m 3.999635,-9.10121 q -1.734536,0 -2.795663,1.244785 -1.061128,1.244784 -1.285597,3.979228 h 7.958457 Q 67.352477,20.4744 66.4546,19.045959 65.556723,17.617518 63.495687,17.617518 Z"
       style="font-weight:bold;font-family:'Fira Code';-inkscape-font-specification:'Fira Code Bold'"
       id="path3095" />
    <path
       d="m 78.596364,35.677094 v -4.326136 h 2.856882 V 18.290926 h -2.856882 v -4.285323 h 7.774801 l 1.183565,4.877106 q 1.163159,-2.795663 2.958913,-4.162885 1.816161,-1.367222 4.428167,-1.367222 1.101941,0 1.959005,0.183656 0.857065,0.163251 1.612098,0.469345 l -1.959005,5.326045 q -0.591783,-0.163251 -1.183565,-0.244876 -0.591783,-0.08162 -1.306004,-0.08162 -2.122255,0 -3.734352,1.734535 -1.591692,1.734536 -2.42835,4.407761 v 6.203515 h 4.285323 v 4.326136 z M 93.268494,23.066 v -6.325953 l 0.959096,-2.734444 h 4.285323 L 97.308941,23.066 Z"
       style="font-weight:bold;font-family:'Fira Code';-inkscape-font-specification:'Fira Code Bold'"
       id="path3092" />
    <path
       d="m 122.12302,10.536532 1.51006,4.734262 q -1.14275,0.448939 -2.67322,0.653002 -1.53047,0.204062 -3.5711,0.204062 2.04063,0.877471 3.10175,2.183475 1.08154,1.285596 1.08154,3.387445 0,2.101849 -1.12235,3.754759 -1.12235,1.632504 -3.18338,2.571194 -2.06104,0.93869 -4.87711,0.93869 -0.69381,0 -1.306,-0.06122 -0.61219,-0.06122 -1.20397,-0.183657 -0.34691,0.183657 -0.53057,0.530564 -0.18365,0.346907 -0.18365,0.714221 0,0.510157 0.40812,0.918283 0.42854,0.408126 1.97941,0.408126 h 3.5507 q 2.53038,0 4.36695,0.816252 1.85697,0.816252 2.87729,2.224287 1.02031,1.408034 1.02031,3.224195 0,3.326227 -2.9181,5.244419 -2.9181,1.918192 -8.67268,1.918192 -4.16288,0 -6.44839,-0.857064 -2.2651,-0.836659 -3.16297,-2.407944 -0.87747,-1.550878 -0.87747,-3.69354 h 5.71376 q 0,0.93869 0.36731,1.530473 0.38772,0.612189 1.44885,0.897877 1.08153,0.285688 3.12216,0.285688 2.06104,0 3.14257,-0.326501 1.08154,-0.326501 1.46926,-0.897877 0.40812,-0.55097 0.40812,-1.244784 0,-0.959096 -0.75503,-1.550879 -0.75503,-0.591783 -2.38754,-0.591783 h -3.44866 q -3.50988,0 -5.10158,-1.285597 -1.59169,-1.306003 -1.59169,-3.040538 0,-1.203972 0.6326,-2.285506 0.653,-1.081534 1.81616,-1.816161 -2.08144,-1.10194 -2.97932,-2.5916 -0.89788,-1.510066 -0.89788,-3.611915 0,-2.448756 1.24479,-4.203697 1.24478,-1.775348 3.42825,-2.734444 2.20388,-0.959097 5.01995,-0.959097 2.42835,0.04081 4.22411,-0.3265 1.79575,-0.38772 3.22419,-1.040722 1.42844,-0.673408 2.73445,-1.428441 z m -10.0195,6.978955 q -1.53047,0 -2.42835,0.979502 -0.89787,0.959096 -0.89787,2.652819 0,1.795755 0.91828,2.754851 0.91828,0.959096 2.40794,0.959096 1.6121,0 2.44876,-0.959096 0.85706,-0.959096 0.85706,-2.836476 0,-1.816161 -0.83665,-2.673225 -0.83666,-0.877471 -2.46917,-0.877471 z"
       style="font-weight:bold;font-family:'Fira Code';-inkscape-font-specification:'Fira Code Bold'"
       id="path3089" />
    <path
       d="m 136.75435,13.291383 q 3.34663,0 5.69335,1.428441 2.34673,1.428441 3.59151,4.020041 1.24479,2.571194 1.24479,6.040265 0,3.611915 -1.26519,6.223921 -1.24479,2.5916 -3.59151,3.979228 -2.34673,1.387629 -5.67295,1.387629 -3.30582,0 -5.67295,-1.367222 -2.34673,-1.367222 -3.61192,-3.958823 -1.24478,-2.5916 -1.24478,-6.223921 0,-3.448665 1.24478,-6.040265 1.26519,-2.5916 3.61192,-4.040447 2.36713,-1.448847 5.67295,-1.448847 z m 0,4.754668 q -1.97941,0 -2.93851,1.632504 -0.93869,1.612097 -0.93869,5.142387 0,3.591509 0.93869,5.203607 0.9591,1.612097 2.93851,1.612097 1.97941,0 2.9181,-1.612097 0.95909,-1.612098 0.95909,-5.244419 0,-3.509884 -0.95909,-5.121982 -0.93869,-1.612097 -2.9181,-1.612097 z"
       style="font-weight:bold;font-family:'Fira Code';-inkscape-font-specification:'Fira Code Bold'"
       id="path3086" />
    <path
       d="m 156.69132,31.820303 q 0,-1.244784 0.61219,-2.265099 0.61219,-1.040722 1.65291,-1.652911 1.04072,-0.632595 2.28551,-0.632595 1.26519,0 2.2855,0.632595 1.04072,0.612189 1.65291,1.652911 0.61219,1.020315 0.61219,2.265099 0,1.224378 -0.61219,2.265099 -0.61219,1.040721 -1.65291,1.65291 -1.02031,0.632596 -2.2855,0.632596 -1.24479,0 -2.28551,-0.632596 -1.04072,-0.612189 -1.65291,-1.65291 -0.61219,-1.040721 -0.61219,-2.265099 z"
       style="font-weight:bold;font-family:'Fira Code';-inkscape-font-specification:'Fira Code Bold'"
       id="path3083" />
    <path
       d="m 188.66801,4.720737 6.44839,0.6734079 V 35.677094 h -5.71376 l -0.3265,-2.387538 q -0.89788,1.265191 -2.38754,2.183475 -1.48966,0.897877 -3.61191,0.897877 -2.69364,0 -4.46898,-1.448848 -1.75495,-1.448847 -2.63242,-4.040447 -0.85706,-2.612006 -0.85706,-6.101483 0,-3.346634 1.04072,-5.938234 1.04072,-2.5916 2.97932,-4.060853 1.9386,-1.48966 4.61182,-1.48966 1.44885,0 2.69364,0.510157 1.24478,0.510158 2.22428,1.48966 z m -3.18338,13.284501 q -1.67332,0 -2.69363,1.591691 -1.02032,1.571285 -1.02032,5.224013 0,2.673225 0.42854,4.162885 0.42853,1.469254 1.18356,2.061036 0.75503,0.591783 1.73454,0.591783 1.08153,0 1.959,-0.673408 0.89788,-0.673408 1.59169,-1.836567 v -9.346085 q -0.67341,-0.836658 -1.42844,-1.306003 -0.75503,-0.469345 -1.75494,-0.469345 z"
       style="fill:#3f3f3f"
       id="path3080" />
    <path
       d="m 210.21707,13.291383 q 3.34663,0 5.69336,1.428441 2.34672,1.428441 3.59151,4.020041 1.24478,2.571194 1.24478,6.040265 0,3.611915 -1.26519,6.223921 -1.24479,2.5916 -3.59151,3.979228 -2.34672,1.387629 -5.67295,1.387629 -3.30582,0 -5.67295,-1.367222 -2.34673,-1.367222 -3.61192,-3.958823 -1.24478,-2.5916 -1.24478,-6.223921 0,-3.448665 1.24478,-6.040265 1.26519,-2.5916 3.61192,-4.040447 2.36713,-1.448847 5.67295,-1.448847 z m 0,4.754668 q -1.97941,0 -2.93851,1.632504 -0.93869,1.612097 -0.93869,5.142387 0,3.591509 0.93869,5.203607 0.9591,1.612097 2.93851,1.612097 1.97941,0 2.9181,-1.612097 0.9591,-1.612098 0.9591,-5.244419 0,-3.509884 -0.9591,-5.121982 -0.93869,-1.612097 -2.9181,-1.612097 z"
       style="fill:#3f3f3f"
       id="path3077" />
    <path
       d="m 236.8065,31.289739 q 1.32641,0 2.48957,-0.510157 1.18356,-0.530564 2.34672,-1.346816 l 2.87729,4.08126 q -1.42844,1.224378 -3.48948,2.04063 -2.04063,0.816252 -4.57101,0.816252 -3.48948,0 -5.99945,-1.428441 -2.50998,-1.448848 -3.85679,-3.999635 -1.34682,-2.571194 -1.34682,-5.958639 0,-3.387446 1.36722,-6.019859 1.38763,-2.652819 3.91801,-4.162885 2.55079,-1.510066 6.04027,-1.510066 2.46916,0 4.38735,0.693814 1.9386,0.673408 3.5507,2.020224 l -2.79566,3.877197 q -1.10194,-0.77544 -2.32632,-1.203972 -1.22438,-0.428532 -2.55079,-0.428532 -2.18347,0 -3.53029,1.550878 -1.32641,1.530473 -1.32641,5.183201 0,2.387537 0.6326,3.775165 0.63259,1.367222 1.71413,1.959005 1.10194,0.571376 2.46916,0.571376 z"
       style="fill:#3f3f3f"
       id="path3074" />
    <path
       d="m 258.49841,31.759084 q 1.6121,0 2.5916,-0.510158 0.99991,-0.510157 0.99991,-1.530472 0,-0.693814 -0.38772,-1.163159 -0.38772,-0.469345 -1.48966,-0.897877 -1.10194,-0.428533 -3.26501,-1.020315 -1.97941,-0.530564 -3.50988,-1.346816 -1.51006,-0.816252 -2.36713,-2.101849 -0.83666,-1.285597 -0.83666,-3.203789 0,-1.938598 1.08154,-3.448665 1.08153,-1.510066 3.18338,-2.36713 2.10185,-0.877471 5.14239,-0.877471 2.89769,0 5.04035,0.755033 2.16307,0.734627 3.73436,1.87738 l -2.5712,3.795571 q -1.34681,-0.836658 -2.89769,-1.326409 -1.55088,-0.510158 -3.12217,-0.510158 -1.57128,0 -2.34672,0.428533 -0.75503,0.408126 -0.75503,1.244784 0,0.55097 0.38772,0.959096 0.40812,0.38772 1.51006,0.816252 1.10194,0.408126 3.2242,1.020315 2.10185,0.591783 3.65272,1.367222 1.57129,0.775439 2.42835,2.081443 0.85707,1.285596 0.85707,3.407852 0,2.36713 -1.40804,3.979228 -1.40803,1.591691 -3.73435,2.387537 -2.32632,0.795846 -5.10157,0.795846 -3.14257,0 -5.55052,-0.897877 -2.40794,-0.897878 -4.10166,-2.367131 l 3.2446,-3.632322 q 1.26519,0.979503 2.85688,1.632504 1.6121,0.653002 3.50988,0.653002 z"
       style="fill:#3f3f3f"
       id="path3071" />
  </g>
  <metadata
     id="metadata69">
    <rdf:RDF>
      <cc:Work
         rdf:about="">
        <dc:format>image/svg+xml</dc:format>
        <dc:type
           rdf:resource="http://purl.org/dc/dcmitype/StillImage" />
      </cc:Work>
    </rdf:RDF>
  </metadata>
  <circle
     cx="24"
     cy="24.6565"
     r="23"
     fill="url(#paint0_linear)"
     id="circle10"
     style="fill:url(#paint0_linear)" />
  <path
     fill-rule="evenodd"
     clip-rule="evenodd"
     d="m 24,47.3765 c 12.5479,0 22.72,-10.1721 22.72,-22.72 C 46.72,12.1086 36.5479,1.93649 24,1.93649 11.4521,1.93649 1.28,12.1086 1.28,24.6565 c 0,12.5479 10.1721,22.72 22.72,22.72 z m 0,1.28 c 13.2548,0 24,-10.7452 24,-24 C 48,11.4017 37.2548,0.656494 24,0.656494 10.7452,0.656494 0,11.4017 0,24.6565 c 0,13.2548 10.7452,24 24,24 z"
     fill="white"
     id="path12"
     style="fill:#ffffff;fill-opacity:1" />
  <path
     d="m 12.8866,27.8591 c 0,-1.6072 -1.2973,-2.9102 -2.89757,-2.9102 -1.6003,0 -2.8976,1.303 -2.8976,2.9102 0,1.6073 1.2973,2.9103 2.8976,2.9103 1.60027,0 2.89757,-1.303 2.89757,-2.9103 z"
     fill="#1F5C8C"
     id="path14"
     style="fill:#c64f00;fill-opacity:1" />
  <path
     d="m 41.3796,27.8591 c 0,-1.6072 -1.2973,-2.9102 -2.8976,-2.9102 -1.6003,0 -2.8976,1.303 -2.8976,2.9102 0,1.6073 1.2973,2.9103 2.8976,2.9103 1.6003,0 2.8976,-1.303 2.8976,-2.9103 z"
     fill="#1F5C8C"
     id="path16"
     style="fill:#c64f00;fill-opacity:1" />
  <path
     d="m 19.6477,34.1646 c 0,-1.6072 -1.2973,-2.9102 -2.8976,-2.9102 -1.6003,0 -2.8976,1.303 -2.8976,2.9102 0,1.6073 1.2973,2.9103 2.8976,2.9103 1.6003,0 2.8976,-1.303 2.8976,-2.9103 z"
     fill="#1F5C8C"
     id="path18"
     style="fill:#c64f00;fill-opacity:1" />
  <path
     d="m 19.6477,22.0387 c 0,-1.6073 -1.2973,-2.9103 -2.8976,-2.9103 -1.6003,0 -2.8976,1.303 -2.8976,2.9103 0,1.6072 1.2973,2.9102 2.8976,2.9102 1.6003,0 2.8976,-1.303 2.8976,-2.9102 z"
     fill="#1F5C8C"
     id="path20"
     style="fill:#c64f00;fill-opacity:1" />
  <path
     d="M 15.7842,34.4072 H 17.716 V 22.7662 H 15.7842 Z"
     fill="#1f5c8c"
     id="path22" />
  <path
     d="m 34.136,34.1646 c 0,-1.6072 -1.2973,-2.9102 -2.8976,-2.9102 -1.6003,0 -2.8976,1.303 -2.8976,2.9102 0,1.6073 1.2973,2.9103 2.8976,2.9103 1.6003,0 2.8976,-1.303 2.8976,-2.9103 z"
     fill="#1F5C8C"
     id="path24"
     style="fill:#c64f00;fill-opacity:1" />
  <path
     d="m 34.136,22.0387 c 0,-1.6073 -1.2973,-2.9103 -2.8976,-2.9103 -1.6003,0 -2.8976,1.303 -2.8976,2.9103 0,1.6072 1.2973,2.9102 2.8976,2.9102 1.6003,0 2.8976,-1.303 2.8976,-2.9102 z"
     fill="#1F5C8C"
     id="path26"
     style="fill:#c64f00;fill-opacity:1" />
  <path
     d="m 30.2726,34.4072 h 1.9317 v -11.641 h -1.9317 z"
     fill="#1f5c8c"
     id="path28" />
  <path
     d="m 26.892,27.3741 c 0,-1.6073 -1.2973,-2.9102 -2.8976,-2.9102 -1.6003,0 -2.8976,1.3029 -2.8976,2.9102 0,1.6073 1.2973,2.9102 2.8976,2.9102 1.6003,0 2.8976,-1.3029 2.8976,-2.9102 z"
     fill="#1F5C8C"
     id="path30"
     style="fill:#c64f00;fill-opacity:1" />
  <path
     d="m 26.892,15.2481 c 0,-1.6073 -1.2973,-2.9102 -2.8976,-2.9102 -1.6003,0 -2.8976,1.3029 -2.8976,2.9102 0,1.6073 1.2973,2.9103 2.8976,2.9103 1.6003,0 2.8976,-1.303 2.8976,-2.9103 z"
     fill="#1F5C8C"
     id="path32"
     style="fill:#c64f00;fill-opacity:1" />
  <path
     d="m 23.0286,27.6166 h 1.9317 V 15.9757 h -1.9317 z"
     fill="#1f5c8c"
     id="path34" />
  <path
     d="m 12.8866,26.8591 c 0,-1.6072 -1.2973,-2.9102 -2.89757,-2.9102 -1.6003,0 -2.8976,1.303 -2.8976,2.9102 0,1.6073 1.2973,2.9103 2.8976,2.9103 1.60027,0 2.89757,-1.303 2.89757,-2.9103 z"
     fill="white"
     id="path36"
     style="fill:#ffffff;fill-opacity:1" />
  <path
     d="m 41.3796,26.8591 c 0,-1.6072 -1.2973,-2.9102 -2.8976,-2.9102 -1.6003,0 -2.8976,1.303 -2.8976,2.9102 0,1.6073 1.2973,2.9103 2.8976,2.9103 1.6003,0 2.8976,-1.303 2.8976,-2.9103 z"
     fill="white"
     id="path38"
     style="fill:#ffffff;fill-opacity:1" />
  <path
     d="m 19.6477,33.1646 c 0,-1.6072 -1.2973,-2.9102 -2.8976,-2.9102 -1.6003,0 -2.8976,1.303 -2.8976,2.9102 0,1.6073 1.2973,2.9103 2.8976,2.9103 1.6003,0 2.8976,-1.303 2.8976,-2.9103 z"
     fill="white"
     id="path40"
     style="fill:#ffffff;fill-opacity:1" />
  <path
     d="m 19.6477,21.0387 c 0,-1.6073 -1.2973,-2.9103 -2.8976,-2.9103 -1.6003,0 -2.8976,1.303 -2.8976,2.9103 0,1.6072 1.2973,2.9102 2.8976,2.9102 1.6003,0 2.8976,-1.303 2.8976,-2.9102 z"
     fill="white"
     id="path42"
     style="fill:#ffffff;fill-opacity:1" />
  <path
     d="M 15.7842,33.4072 H 17.716 V 21.7662 H 15.7842 Z"
     fill="white"
     id="path44"
     style="fill:#ffffff;fill-opacity:1" />
  <path
     d="m 34.136,33.1646 c 0,-1.6072 -1.2973,-2.9102 -2.8976,-2.9102 -1.6003,0 -2.8976,1.303 -2.8976,2.9102 0,1.6073 1.2973,2.9103 2.8976,2.9103 1.6003,0 2.8976,-1.303 2.8976,-2.9103 z"
     fill="white"
     id="path46"
     style="fill:#ffffff;fill-opacity:1" />
  <path
     d="m 34.136,21.0387 c 0,-1.6073 -1.2973,-2.9103 -2.8976,-2.9103 -1.6003,0 -2.8976,1.303 -2.8976,2.9103 0,1.6072 1.2973,2.9102 2.8976,2.9102 1.6003,0 2.8976,-1.303 2.8976,-2.9102 z"
     fill="white"
     id="path48"
     style="fill:#ffffff;fill-opacity:1" />
  <path
     d="m 30.2726,33.4072 h 1.9317 v -11.641 h -1.9317 z"
     fill="white"
     id="path50"
     style="fill:#ffffff;fill-opacity:1" />
  <path
     d="m 26.892,26.3741 c 0,-1.6073 -1.2973,-2.9102 -2.8976,-2.9102 -1.6003,0 -2.8976,1.3029 -2.8976,2.9102 0,1.6073 1.2973,2.9102 2.8976,2.9102 1.6003,0 2.8976,-1.3029 2.8976,-2.9102 z"
     fill="#ffffff"
     id="path52" />
  <path
     d="m 26.892,14.2481 c 0,-1.6073 -1.2973,-2.9102 -2.8976,-2.9102 -1.6003,0 -2.8976,1.3029 -2.8976,2.9102 0,1.6073 1.2973,2.9103 2.8976,2.9103 1.6003,0 2.8976,-1.303 2.8976,-2.9103 z"
     fill="white"
     id="path54"
     style="fill:#ffffff;fill-opacity:1" />
  <path
     d="m 23.0286,26.6166 h 1.9317 V 14.9757 h -1.9317 z"
     fill="white"
     id="path56"
     style="fill:#ffffff;fill-opacity:1" />
  <defs
     id="defs63">
    <linearGradient
       id="paint0_linear"
       x1="24"
       y1="1.65649"
       x2="24"
       y2="47.656502"
       gradientUnits="userSpaceOnUse">
      <stop
         stop-color="#50B6F5"
         id="stop58"
         offset="0"
         style="stop-color:#faaa77;stop-opacity:1;" />
      <stop
         offset="1"
         stop-color="#307BF1"
         id="stop60"
         style="stop-color:#e67527;stop-opacity:1;" />
    </linearGradient>
  </defs>
</svg>
